<mxfile host="app.diagrams.net" modified="2024-06-09T12:04:34.894Z" agent="Mozilla/5.0 (Windows NT 10.0; Win64; x64) AppleWebKit/537.36 (KHTML, like Gecko) Chrome/125.0.0.0 Safari/537.36" etag="ClHPyHWvDCUucafUNM6M" version="24.0.4" type="device">
  <diagram name="Page-1" id="7JYDVZ44vnmvxMW9kPQQ">
    <mxGraphModel dx="921" dy="607" grid="0" gridSize="10" guides="1" tooltips="1" connect="1" arrows="1" fold="1" page="0" pageScale="1" pageWidth="827" pageHeight="1169" math="0" shadow="0">
      <root>
        <mxCell id="0" />
        <mxCell id="1" parent="0" />
        <mxCell id="5IOpFxYaOqP8e0HVKTsP-1" value="" style="rounded=1;whiteSpace=wrap;html=1;" vertex="1" parent="1">
          <mxGeometry x="140" y="170" width="120" height="60" as="geometry" />
        </mxCell>
        <mxCell id="5IOpFxYaOqP8e0HVKTsP-2" value="" style="rounded=1;whiteSpace=wrap;html=1;" vertex="1" parent="1">
          <mxGeometry x="286" y="170" width="120" height="60" as="geometry" />
        </mxCell>
        <mxCell id="5IOpFxYaOqP8e0HVKTsP-3" value="" style="rounded=0;whiteSpace=wrap;html=1;" vertex="1" parent="1">
          <mxGeometry x="140" y="170" width="120" height="60" as="geometry" />
        </mxCell>
        <mxCell id="5IOpFxYaOqP8e0HVKTsP-10" style="edgeStyle=none;curved=1;rounded=0;orthogonalLoop=1;jettySize=auto;html=1;fontSize=12;startSize=8;endSize=8;" edge="1" parent="1" source="5IOpFxYaOqP8e0HVKTsP-4">
          <mxGeometry relative="1" as="geometry">
            <mxPoint x="267.79998779296875" y="189.20001220703125" as="targetPoint" />
          </mxGeometry>
        </mxCell>
        <mxCell id="5IOpFxYaOqP8e0HVKTsP-4" value="" style="rounded=0;whiteSpace=wrap;html=1;" vertex="1" parent="1">
          <mxGeometry x="140" y="170" width="120" height="60" as="geometry" />
        </mxCell>
        <mxCell id="5IOpFxYaOqP8e0HVKTsP-5" value="" style="rounded=0;whiteSpace=wrap;html=1;" vertex="1" parent="1">
          <mxGeometry x="-25" y="172" width="120" height="60" as="geometry" />
        </mxCell>
        <mxCell id="5IOpFxYaOqP8e0HVKTsP-6" value="" style="rounded=0;whiteSpace=wrap;html=1;" vertex="1" parent="1">
          <mxGeometry x="105" y="317" width="120" height="60" as="geometry" />
        </mxCell>
        <mxCell id="5IOpFxYaOqP8e0HVKTsP-7" value="" style="rounded=1;whiteSpace=wrap;html=1;" vertex="1" parent="1">
          <mxGeometry x="306" y="312" width="120" height="60" as="geometry" />
        </mxCell>
        <mxCell id="5IOpFxYaOqP8e0HVKTsP-8" value="" style="endArrow=classic;startArrow=classic;html=1;rounded=0;fontSize=12;startSize=8;endSize=8;curved=1;exitX=-0.038;exitY=0.627;exitDx=0;exitDy=0;exitPerimeter=0;entryX=1;entryY=0.5;entryDx=0;entryDy=0;" edge="1" parent="1" source="5IOpFxYaOqP8e0HVKTsP-2" target="5IOpFxYaOqP8e0HVKTsP-4">
          <mxGeometry width="50" height="50" relative="1" as="geometry">
            <mxPoint x="175" y="225" as="sourcePoint" />
            <mxPoint x="225" y="175" as="targetPoint" />
          </mxGeometry>
        </mxCell>
        <mxCell id="5IOpFxYaOqP8e0HVKTsP-9" value="" style="endArrow=classic;html=1;rounded=0;fontSize=12;startSize=8;endSize=8;curved=1;exitX=1;exitY=0.5;exitDx=0;exitDy=0;entryX=0;entryY=0.5;entryDx=0;entryDy=0;" edge="1" parent="1" source="5IOpFxYaOqP8e0HVKTsP-5" target="5IOpFxYaOqP8e0HVKTsP-4">
          <mxGeometry width="50" height="50" relative="1" as="geometry">
            <mxPoint x="175" y="225" as="sourcePoint" />
            <mxPoint x="225" y="175" as="targetPoint" />
          </mxGeometry>
        </mxCell>
      </root>
    </mxGraphModel>
  </diagram>
</mxfile>
